<?xml version="1.0" ?><!DOCTYPE svg  PUBLIC '-//W3C//DTD SVG 1.1//EN'  'http://www.w3.org/Graphics/SVG/1.1/DTD/svg11.dtd'><svg enable-background="new 0 0 512 512" id="Layer_1" version="1.1" viewBox="0 0 512 512" xml:space="preserve" xmlns="http://www.w3.org/2000/svg" xmlns:xlink="http://www.w3.org/1999/xlink"><linearGradient gradientUnits="userSpaceOnUse" id="SVGID_1_" x1="256" x2="256" y1="512" y2="-9.094947e-013"><stop offset="0" style="stop-color:#514A9D"/><stop offset="1" style="stop-color:#24C6DC"/></linearGradient><circle cx="256" cy="256" fill="url(#SVGID_1_)" r="256"/><g><path d="M256,124c-72.8,0-132,59.2-132,132s59.2,132,132,132c72.8,0,132-59.2,132-132S328.8,124,256,124z    M256,377.6c-67.1,0-121.6-54.6-121.6-121.6S188.9,134.4,256,134.4S377.6,188.9,377.6,256S323.1,377.6,256,377.6z" fill="#FFFFFF"/><path d="M259.5,252.8v-69.6c0-2.9-2.3-5.2-5.2-5.2c-2.9,0-5.2,2.3-5.2,5.2V255c0,0.7,0.1,1.4,0.4,2   c0.3,0.6,0.6,1.2,1.1,1.7L313,321c1,1,2.3,1.5,3.7,1.5c1.3,0,2.7-0.5,3.7-1.5c2-2,2-5.3,0-7.4L259.5,252.8z" fill="#FFFFFF"/></g></svg>