<?xml version="1.0" ?><!DOCTYPE svg  PUBLIC '-//W3C//DTD SVG 1.1//EN'  'http://www.w3.org/Graphics/SVG/1.1/DTD/svg11.dtd'><svg enable-background="new 0 0 512 512" id="Layer_1" version="1.1" viewBox="0 0 512 512" xml:space="preserve" xmlns="http://www.w3.org/2000/svg" xmlns:xlink="http://www.w3.org/1999/xlink"><linearGradient gradientUnits="userSpaceOnUse" id="SVGID_1_" x1="256" x2="256" y1="512" y2="-9.094947e-013"><stop offset="0" style="stop-color:#0072FF"/><stop offset="1" style="stop-color:#00C6FF"/></linearGradient><circle cx="256" cy="256" fill="url(#SVGID_1_)" r="256"/><path d="M351.8,160.3c-25.6-25.6-59.6-39.7-95.7-39.7s-70.2,14.1-95.7,39.7l0,0l0,0c-52.8,52.8-52.8,138.7,0,191.5  c25.6,25.6,59.6,39.7,95.7,39.7c36.2,0,70.2-14.1,95.7-39.7C404.5,299,404.5,213,351.8,160.3z M347.8,340.2l-31.3-31.3  c12.9-14.7,20-33.2,20-52.9c0-19.7-7.1-38.3-20-52.9l31.3-31.3C391.5,219.3,391.5,292.7,347.8,340.2z M206.7,305.3  c-13.2-13.2-20.4-30.7-20.4-49.3s7.3-36.2,20.4-49.3h0l0,0c13.2-13.2,30.7-20.4,49.3-20.4c18.6,0,36.2,7.3,49.3,20.4l0,0h0  c13.2,13.2,20.4,30.7,20.4,49.3s-7.3,36.2-20.4,49.3c-13.2,13.2-30.7,20.4-49.3,20.4C237.4,325.8,219.8,318.5,206.7,305.3z   M340.3,164.2l-31.3,31.3c-14.7-12.9-33.2-20-52.9-20c-19.7,0-38.3,7.1-52.9,20l-31.3-31.3c23.1-21.2,52.7-32.9,84.3-32.9  C287.5,131.3,317.2,143,340.3,164.2z M164.2,171.8l31.3,31.3c-12.9,14.7-20,33.2-20,52.9c0,19.7,7.1,38.3,20,52.9l-31.3,31.3  C120.5,292.7,120.5,219.3,164.2,171.8z M171.7,347.8l31.3-31.3c14.7,12.9,33.2,20,52.9,20c19.7,0,38.3-7.1,52.9-20l31.3,31.3  c-23.1,21.2-52.7,32.9-84.3,32.9C224.5,380.7,194.8,369,171.7,347.8z" fill="#FFFFFF"/></svg>